<?xml version="1.0" standalone="no"?>
<!DOCTYPE svg PUBLIC "-//W3C//DTD SVG 20010904//EN"
 "http://www.w3.org/TR/2001/REC-SVG-20010904/DTD/svg10.dtd">
<svg version="1.0" xmlns="http://www.w3.org/2000/svg"
 width="482.000000pt" height="262.000000pt" viewBox="0 0 482.000000 262.000000"
 preserveAspectRatio="xMidYMid meet">

<g transform="translate(0.000000,262.000000) scale(0.100000,-0.100000)"
fill="#000000" stroke="none">
<path d="M2060 2509 c-292 -20 -623 -82 -885 -166 -517 -166 -885 -424 -1035
-728 -55 -110 -74 -190 -74 -310 -1 -317 229 -610 664 -843 804 -432 2129
-480 3041 -112 591 239 933 615 906 997 -38 537 -735 996 -1722 1132 -285 39
-597 50 -895 30z m600 -79 c761 -57 1368 -278 1707 -622 115 -116 181 -228
212 -358 26 -108 26 -180 0 -285 -67 -268 -333 -521 -739 -705 -275 -124 -677
-223 -1060 -262 -165 -17 -649 -17 -820 0 -766 75 -1406 347 -1677 715 -251
342 -169 709 228 1019 454 355 1334 559 2149 498z"/>
<path d="M785 2014 c-38 -8 -117 -38 -174 -66 -89 -43 -117 -62 -187 -132 -70
-70 -89 -98 -132 -187 -55 -113 -82 -218 -82 -319 0 -101 27 -206 82 -319 43
-89 62 -117 132 -187 70 -70 98 -89 187 -132 224 -109 414 -109 638 0 89 43
117 62 187 132 70 70 89 98 132 187 55 113 82 218 82 319 0 101 -27 206 -82
319 -43 89 -62 117 -132 187 -70 70 -98 89 -187 132 -162 79 -305 99 -464 66z
m350 -58 c281 -89 475 -353 475 -645 0 -205 -109 -423 -273 -546 -233 -176
-560 -177 -807 -4 -125 88 -236 260 -265 414 -73 379 161 724 546 805 77 16
235 5 324 -24z"/>
<path d="M800 1949 c-54 -10 -160 -53 -215 -87 -57 -36 -160 -137 -199 -196
-77 -120 -112 -253 -103 -399 6 -98 22 -156 69 -252 84 -170 253 -302 438
-341 97 -21 249 -14 340 15 190 60 361 231 421 421 26 82 35 226 20 312 -45
257 -248 468 -506 524 -67 15 -197 16 -265 3z m21 -309 c19 -5 54 -26 78 -46
l42 -37 27 26 c59 57 161 74 230 38 128 -66 160 -216 70 -326 -18 -21 -31 -47
-30 -58 4 -23 -22 -64 -45 -71 -10 -3 -26 -19 -35 -36 -9 -16 -24 -30 -32 -30
-8 0 -24 -16 -35 -36 -21 -35 -24 -36 -65 -31 -40 6 -45 4 -81 -33 -22 -22
-48 -40 -60 -40 -28 0 -65 27 -65 48 0 10 -13 22 -30 29 -18 7 -32 21 -35 36
-4 15 -16 28 -30 31 -13 3 -29 19 -37 36 -7 16 -18 30 -24 30 -25 0 -47 39
-41 75 3 19 1 37 -4 41 -5 3 -21 24 -35 46 -102 162 50 360 237 308z"/>
<path d="M682 1599 c-102 -51 -128 -172 -56 -266 l26 -35 27 25 c14 13 34 27
44 30 27 10 66 -10 77 -38 5 -14 21 -30 35 -37 14 -6 28 -22 31 -35 4 -13 12
-23 18 -23 15 0 56 -42 56 -57 0 -6 9 -13 20 -16 11 -3 29 -21 41 -42 16 -26
27 -35 43 -33 41 6 29 37 -44 113 -100 102 -82 120 21 20 43 -42 84 -75 91
-73 6 2 16 12 22 21 9 14 -1 29 -57 85 -65 65 -81 92 -55 92 7 0 43 -30 80
-67 56 -56 71 -66 85 -57 9 6 19 16 21 23 2 6 -37 53 -86 104 l-91 91 -60 -57
c-33 -31 -69 -57 -79 -57 -11 0 -34 12 -51 26 -48 40 -43 73 24 144 l56 58
-40 31 c-69 55 -130 64 -199 30z"/>
<path d="M1061 1603 c-13 -3 -69 -49 -125 -103 -96 -94 -100 -99 -88 -124 20
-44 57 -35 124 31 l58 57 90 -89 89 -89 22 20 c69 62 70 195 2 256 -43 39
-105 53 -172 41z"/>
<path d="M686 1281 c-41 -42 -45 -74 -11 -79 13 -2 35 12 60 38 32 33 38 44
29 58 -18 29 -38 24 -78 -17z"/>
<path d="M757 1212 c-40 -41 -47 -66 -20 -76 19 -8 57 17 86 57 17 22 18 29 7
42 -19 23 -32 19 -73 -23z"/>
<path d="M822 1147 c-34 -35 -42 -71 -17 -81 23 -8 97 62 93 88 -5 34 -40 31
-76 -7z"/>
<path d="M886 1071 c-42 -43 -43 -71 -3 -71 30 0 90 61 85 86 -6 34 -41 27
-82 -15z"/>
<path d="M3010 1666 l0 -64 -42 -7 c-60 -10 -103 -56 -112 -118 -15 -97 32
-177 103 -177 11 0 29 10 41 22 17 18 20 19 20 5 0 -13 9 -17 45 -17 l45 0 0
210 0 210 -50 0 -50 0 0 -64z m0 -210 c0 -36 -5 -68 -11 -72 -19 -11 -44 24
-43 64 0 51 10 72 34 72 18 0 20 -6 20 -64z"/>
<path d="M1730 1500 l0 -190 126 0 125 0 -3 43 -3 42 -72 3 -73 3 0 144 0 145
-50 0 -50 0 0 -190z"/>
<path d="M3480 1500 l0 -190 50 0 50 0 0 190 0 190 -50 0 -50 0 0 -190z"/>
<path d="M3765 1678 c-2 -7 -6 -30 -10 -50 -4 -29 -11 -38 -25 -38 -29 0 -29
-65 0 -73 17 -4 20 -14 20 -72 0 -85 18 -121 68 -136 21 -6 49 -9 62 -7 21 2
25 9 28 45 3 39 1 42 -25 45 -27 3 -28 5 -31 66 l-3 62 31 0 c28 0 30 3 30 35
0 32 -2 35 -30 35 -29 0 -30 1 -30 50 l0 50 -40 0 c-24 0 -42 -5 -45 -12z"/>
<path d="M2163 1585 c-49 -21 -67 -57 -67 -135 0 -103 45 -150 141 -150 70 0
83 8 83 50 l0 37 -48 -5 c-38 -3 -52 0 -67 14 -18 19 -17 19 53 22 l72 3 0 47
c0 104 -76 157 -167 117z m77 -80 c0 -20 -5 -25 -25 -25 -26 0 -29 7 -19 34
10 27 44 20 44 -9z"/>
<path d="M2588 1585 c-17 -10 -29 -11 -33 -5 -3 5 -24 10 -46 10 l-39 0 0
-140 0 -140 50 0 49 0 3 98 c3 89 5 97 23 97 18 0 20 -8 23 -97 l3 -98 49 0
50 0 0 88 c-1 107 -12 162 -41 185 -26 21 -55 21 -91 2z"/>
<path d="M3130 965 c0 -87 3 -105 15 -105 10 0 15 10 15 33 l1 32 27 -33 c38
-45 60 -43 32 3 l-22 35 21 35 c18 32 19 35 3 35 -9 0 -26 -15 -37 -33 l-20
-32 -3 68 c-2 51 -6 67 -17 67 -12 0 -15 -20 -15 -105z"/>
<path d="M1870 955 c0 -78 3 -95 15 -95 11 0 15 11 15 40 0 26 5 40 13 40 7 0
23 -18 37 -40 14 -23 32 -40 43 -40 15 0 13 7 -14 47 l-32 46 27 49 c34 61 12
68 -28 8 -14 -22 -31 -40 -36 -40 -6 0 -10 18 -10 40 0 29 -4 40 -15 40 -12 0
-15 -17 -15 -95z"/>
<path d="M2482 1038 c-7 -7 -12 -29 -12 -49 0 -21 -4 -41 -10 -44 -15 -9 -12
-52 6 -69 17 -18 71 -21 94 -6 9 5 19 5 27 -2 20 -16 28 -1 15 25 -6 12 -12
33 -14 46 -4 31 -28 41 -28 11 l0 -21 -30 21 c-19 14 -30 30 -30 46 0 19 6 26
30 31 17 3 30 9 30 14 0 13 -64 11 -78 -3z m43 -122 c27 -22 28 -25 11 -32
-24 -9 -50 7 -54 35 -4 27 6 27 43 -3z"/>
<path d="M2680 1035 c0 -9 9 -15 25 -15 25 0 25 -1 25 -80 0 -64 3 -80 15 -80
12 0 15 16 15 80 0 79 0 80 25 80 16 0 25 6 25 15 0 12 -14 15 -65 15 -51 0
-65 -3 -65 -15z"/>
<path d="M3321 998 c19 -35 29 -68 29 -95 0 -32 4 -43 15 -43 10 0 15 11 15
35 0 20 14 62 30 95 24 47 27 60 15 60 -8 0 -23 -16 -32 -35 -9 -19 -20 -35
-25 -35 -5 0 -16 16 -25 35 -10 20 -24 35 -34 35 -15 0 -13 -7 12 -52z"/>
<path d="M3850 955 c0 -78 3 -95 15 -95 12 0 15 17 15 95 0 78 -3 95 -15 95
-12 0 -15 -17 -15 -95z"/>
<path d="M3920 1026 c0 -13 -6 -26 -12 -29 -10 -4 -10 -7 0 -18 6 -7 12 -30
12 -50 0 -53 9 -69 36 -69 27 0 32 15 9 24 -10 4 -15 20 -15 51 0 33 4 45 15
45 8 0 15 5 15 10 0 6 -7 10 -15 10 -9 0 -15 9 -15 25 0 16 -6 25 -15 25 -9 0
-15 -9 -15 -24z"/>
<path d="M2026 978 c-36 -51 -8 -118 50 -118 19 0 34 5 34 10 0 6 -10 10 -23
10 -23 0 -47 17 -47 32 0 4 18 8 41 8 40 0 41 1 34 27 -4 16 -11 34 -17 40
-16 20 -55 15 -72 -9z m62 -21 c3 -12 -3 -17 -22 -17 -28 0 -29 1 -20 25 8 20
38 15 42 -8z"/>
<path d="M2149 984 c-17 -20 -16 -88 1 -109 14 -17 80 -21 80 -5 0 6 -11 10
-25 10 -14 0 -29 8 -35 20 -10 19 -8 20 31 20 41 0 41 0 35 32 -3 18 -12 36
-19 40 -20 13 -54 9 -68 -8z m59 -27 c3 -12 -3 -17 -21 -17 -20 0 -24 4 -20
20 7 25 36 23 41 -3z"/>
<path d="M2260 899 c0 -79 3 -99 14 -99 9 0 16 12 18 27 2 19 10 29 23 31 34
7 55 33 55 69 0 57 -14 72 -65 71 l-45 -1 0 -98z m68 69 c26 -26 8 -88 -25
-88 -9 0 -13 14 -13 43 0 56 12 71 38 45z"/>
<path d="M2820 930 c0 -56 3 -70 15 -70 12 0 15 13 15 55 0 48 2 55 20 55 11
0 20 7 20 15 0 18 -21 20 -38 3 -9 -9 -12 -9 -12 0 0 7 -4 12 -10 12 -6 0 -10
-30 -10 -70z"/>
<path d="M2900 991 c0 -6 11 -11 24 -11 13 0 29 -7 36 -15 10 -12 9 -16 -6
-21 -39 -12 -49 -22 -49 -50 0 -27 3 -29 43 -30 l43 -2 -3 67 -3 66 -42 3
c-26 2 -43 -1 -43 -7z m70 -86 c0 -9 -7 -18 -16 -22 -18 -7 -39 11 -30 26 11
17 46 13 46 -4z"/>
<path d="M3036 984 c-18 -18 -21 -76 -6 -105 8 -13 21 -19 45 -19 19 0 35 5
35 10 0 6 -8 10 -18 10 -25 0 -42 20 -42 50 0 30 17 50 42 50 10 0 18 5 18 10
0 16 -57 12 -74 -6z"/>
<path d="M3449 984 c-7 -9 -14 -33 -14 -54 0 -46 19 -70 55 -70 36 0 53 22 53
70 0 22 -6 46 -13 55 -16 20 -64 19 -81 -1z m61 -35 c9 -31 -5 -69 -24 -69
-19 0 -30 54 -16 80 14 26 32 22 40 -11z"/>
<path d="M3572 933 l3 -68 48 -1 47 -1 0 69 c0 53 -3 68 -15 68 -10 0 -15 -15
-17 -57 -2 -44 -7 -58 -18 -58 -11 0 -16 14 -18 58 -2 43 -7 57 -18 57 -12 0
-14 -13 -12 -67z"/>
<path d="M3700 929 c0 -55 3 -69 15 -69 11 0 15 12 15 51 0 42 3 52 20 56 34
9 23 31 -15 31 l-35 0 0 -69z"/>
<path d="M4012 988 c-16 -16 -16 -100 0 -116 14 -14 78 -16 78 -3 0 5 -12 11
-27 13 -17 2 -29 10 -31 21 -3 14 4 17 32 17 30 0 36 4 36 21 0 36 -19 59 -48
59 -16 0 -33 -5 -40 -12z m56 -31 c2 -12 -3 -17 -17 -17 -12 0 -21 6 -21 13 0
31 32 34 38 4z"/>
<path d="M4120 929 c0 -55 3 -69 15 -69 11 0 15 12 15 48 0 53 15 78 37 61 7
-7 13 -32 13 -60 0 -27 5 -49 10 -49 6 0 10 22 10 49 0 28 6 53 13 60 22 17
37 -8 37 -61 0 -36 4 -48 15 -48 11 0 15 12 15 51 0 81 -7 87 -100 87 l-80 -1
0 -68z"/>
<path d="M4330 985 c-17 -21 -9 -48 20 -62 33 -16 32 -37 -2 -41 -40 -5 -35
-22 6 -22 58 0 76 52 26 77 -31 15 -32 37 -2 41 12 2 22 8 22 13 0 15 -56 10
-70 -6z"/>
</g>
</svg>
